<svg width="276" height="143" viewBox="0 0 276 143" fill="none" xmlns="http://www.w3.org/2000/svg">
<circle cx="71.4702" cy="72.1932" r="20" fill="white"/>
<path d="M109.533 37.4574C104.925 32.2458 99.2585 28.0725 92.8955 25.2041C86.5326 22.3357 79.6135 20.8355 72.5805 20.7994C65.5476 20.7633 58.5557 22.192 52.0518 24.9943C45.5479 27.7965 39.6752 31.9106 34.8092 37.0736C29.9432 42.2365 26.191 48.3345 23.7925 54.9779C21.394 61.6212 20.4019 68.6636 20.8798 75.6547C21.3577 82.6458 23.295 89.4318 26.5678 95.5788C29.8407 101.726 34.377 107.099 39.8868 111.353L46.5854 102.807C42.2495 99.4585 38.6797 95.2305 36.1042 90.3932C33.5287 85.5558 32.0041 80.2157 31.6281 74.7141C31.252 69.2125 32.0327 63.6706 33.9201 58.4427C35.8076 53.2148 38.7604 48.416 42.5896 44.3531C46.4189 40.2902 51.0403 37.0526 56.1585 34.8474C61.2767 32.6422 66.7789 31.5179 72.3134 31.5463C77.8479 31.5747 83.2928 32.7553 88.3001 35.0125C93.3073 37.2697 97.7666 40.554 101.393 44.6551L109.533 37.4574Z" fill="white"/>
<path d="M71.6702 100.233C66.2302 100.233 61.2702 98.9532 56.7902 96.3932C52.3635 93.7799 48.8702 90.2599 46.3102 85.8332C43.7502 81.4065 42.4702 76.5532 42.4702 71.2732C42.4702 65.9932 43.7502 61.1399 46.3102 56.7132C48.8702 52.2332 52.3635 48.6865 56.7902 46.0732C61.2702 43.4599 66.2302 42.1532 71.6702 42.1532C77.1102 42.1532 82.0436 43.4599 86.4702 46.0732C90.8969 48.6865 94.3636 52.2332 96.8702 56.7132C99.4302 61.1399 100.71 65.9932 100.71 71.2732C100.71 76.5532 99.4302 81.4065 96.8702 85.8332C94.3636 90.2599 90.8969 93.7799 86.4702 96.3932C82.0436 98.9532 77.1102 100.233 71.6702 100.233ZM54.0702 71.2732C54.0702 74.6865 54.7902 77.8065 56.2302 80.6332C57.6702 83.4599 59.7235 85.6999 62.3902 87.3532C65.0569 89.0065 68.1502 89.8332 71.6702 89.8332C75.1902 89.8332 78.2569 89.0065 80.8702 87.3532C83.5369 85.6999 85.5635 83.4599 86.9502 80.6332C88.3902 77.8065 89.1102 74.6865 89.1102 71.2732C89.1102 67.8599 88.3902 64.7399 86.9502 61.9132C85.5635 59.0332 83.5369 56.7665 80.8702 55.1132C78.2569 53.4065 75.1902 52.5532 71.6702 52.5532C68.1502 52.5532 65.0569 53.4065 62.3902 55.1132C59.7235 56.7665 57.6702 59.0332 56.2302 61.9132C54.7902 64.7399 54.0702 67.8599 54.0702 71.2732ZM121.376 100.153C118.389 100.153 115.696 99.4599 113.296 98.0732C110.896 96.6332 109.003 94.6332 107.616 92.0732C106.229 89.4599 105.536 86.4465 105.536 83.0332V57.5932H116.336V80.3932C116.336 87.2732 119.109 90.7132 124.656 90.7132C127.109 90.7132 129.163 89.8599 130.816 88.1532C132.469 86.3932 133.296 83.8065 133.296 80.3932V57.5932H144.096V99.1932H133.616V92.9532C132.603 95.4065 131.109 97.2199 129.136 98.3932C127.163 99.5665 124.576 100.153 121.376 100.153ZM166.227 99.1932C162.014 99.1932 158.84 98.1532 156.707 96.0732C154.574 93.9932 153.507 90.7399 153.507 86.3132V66.7932H147.667V57.5932H153.507V49.1932L164.307 48.0732V57.5932H173.107V66.7932H164.307V85.7532C164.307 88.3132 165.427 89.5932 167.667 89.5932H172.147V99.1932H166.227ZM176.717 57.5932H187.517V99.1932H176.717V57.5932ZM175.597 47.7532C175.597 45.9932 176.21 44.4999 177.437 43.2732C178.717 42.0465 180.264 41.4332 182.077 41.4332C183.944 41.4332 185.49 42.0465 186.717 43.2732C187.944 44.4999 188.557 45.9932 188.557 47.7532C188.557 49.5665 187.944 51.0865 186.717 52.3132C185.49 53.5399 183.944 54.1532 182.077 54.1532C180.264 54.1532 178.717 53.5399 177.437 52.3132C176.21 51.0332 175.597 49.5132 175.597 47.7532ZM193.905 57.5932H204.545V63.6732C206.731 58.9799 210.971 56.6332 217.265 56.6332C220.251 56.6332 222.945 57.3532 225.345 58.7932C227.745 60.1799 229.638 62.1799 231.025 64.7932C232.411 67.3532 233.105 70.3399 233.105 73.7532V99.1932H222.305V76.3932C222.305 72.9265 221.505 70.3399 219.905 68.6332C218.305 66.9265 216.118 66.0732 213.345 66.0732C210.891 66.0732 208.838 66.9532 207.185 68.7132C205.531 70.4199 204.705 72.9799 204.705 76.3932V99.1932H193.905V57.5932ZM237.059 97.9932L255.299 69.1132C255.726 68.4732 256.366 67.6199 257.219 66.5532H237.939V57.5932H273.779V58.7932L255.379 88.1532C255.219 88.4199 254.712 89.1132 253.859 90.2332H273.379V99.1932H237.059V97.9932Z" fill="white"/>
</svg>
